<svg width="25" height="24" viewBox="0 0 25 24" fill="none" xmlns="http://www.w3.org/2000/svg">
<path d="M11.5833 7.84748C10.6473 8.10339 10.0833 8.82154 10.0833 9.5C10.0833 10.1785 10.6473 10.8966 11.5833 11.1525V7.84748Z" fill="white"/>
<path d="M13.0833 12.8475V16.1525C14.0192 15.8966 14.5833 15.1785 14.5833 14.5C14.5833 13.8215 14.0192 13.1034 13.0833 12.8475Z" fill="white"/>
<path fill-rule="evenodd" clip-rule="evenodd" d="M22.3333 12C22.3333 17.5228 17.8561 22 12.3333 22C6.8104 22 2.33325 17.5228 2.33325 12C2.33325 6.47715 6.8104 2 12.3333 2C17.8561 2 22.3333 6.47715 22.3333 12ZM12.3333 5.25C12.7475 5.25 13.0833 5.58579 13.0833 6V6.31673C14.7137 6.60867 16.0833 7.83361 16.0833 9.5C16.0833 9.91421 15.7475 10.25 15.3333 10.25C14.919 10.25 14.5833 9.91421 14.5833 9.5C14.5833 8.82154 14.0192 8.10339 13.0833 7.84748V11.3167C14.7137 11.6087 16.0833 12.8336 16.0833 14.5C16.0833 16.1664 14.7137 17.3913 13.0833 17.6833V18C13.0833 18.4142 12.7475 18.75 12.3333 18.75C11.919 18.75 11.5833 18.4142 11.5833 18V17.6833C9.95282 17.3913 8.58325 16.1664 8.58325 14.5C8.58325 14.0858 8.91904 13.75 9.33325 13.75C9.74747 13.75 10.0833 14.0858 10.0833 14.5C10.0833 15.1785 10.6473 15.8966 11.5833 16.1525V12.6833C9.95282 12.3913 8.58325 11.1664 8.58325 9.5C8.58325 7.83361 9.95282 6.60867 11.5833 6.31673V6C11.5833 5.58579 11.919 5.25 12.3333 5.25Z" fill="white"/>
</svg>
