<svg width="24" height="24" viewBox="0 0 24 24" fill="none" xmlns="http://www.w3.org/2000/svg">
<path d="M14.2501 14.25H9.00006C8.94488 14.2508 8.89093 14.2337 8.84631 14.2013C8.80168 14.1688 8.76878 14.1227 8.75256 14.07L8.35506 12.75H12.7501C12.949 12.75 13.1397 12.671 13.2804 12.5303C13.421 12.3897 13.5001 12.1989 13.5001 12C13.5001 11.8011 13.421 11.6103 13.2804 11.4697C13.1397 11.329 12.949 11.25 12.7501 11.25H7.90506L6.75006 7.3875V5.625C6.75006 4.92881 6.4735 4.26113 5.98121 3.76884C5.48893 3.27656 4.82125 3 4.12506 3C3.42887 3 2.76119 3.27656 2.2689 3.76884C1.77662 4.26113 1.50006 4.92881 1.50006 5.625V7.5C1.48859 7.56701 1.48859 7.63549 1.50006 7.7025L4.29006 17.4525C4.39358 17.8262 4.61699 18.1556 4.92593 18.39C5.23487 18.6245 5.61225 18.7509 6.00006 18.75H6.38256L5.30256 21.4725C5.25722 21.5863 5.24047 21.7095 5.25376 21.8314C5.26705 21.9532 5.30998 22.0699 5.3788 22.1712C5.44762 22.2726 5.54023 22.3556 5.64853 22.4129C5.75683 22.4702 5.87753 22.5001 6.00006 22.5H13.5001C13.6226 22.5001 13.7433 22.4702 13.8516 22.4129C13.9599 22.3556 14.0525 22.2726 14.1213 22.1712C14.1901 22.0699 14.2331 21.9532 14.2464 21.8314C14.2597 21.7095 14.2429 21.5863 14.1976 21.4725L13.1101 18.75H14.2501C14.8468 18.75 15.4191 18.5129 15.8411 18.091C16.263 17.669 16.5001 17.0967 16.5001 16.5C16.5001 15.9033 16.263 15.331 15.8411 14.909C15.4191 14.4871 14.8468 14.25 14.2501 14.25ZM3.24756 8.25H5.44506L6.34506 11.25H4.09506L3.24756 8.25ZM4.12506 4.5C4.42343 4.5 4.70958 4.61853 4.92055 4.8295C5.13153 5.04048 5.25006 5.32663 5.25006 5.625V6.75H3.00006V5.625C3.00006 5.32663 3.11859 5.04048 3.32956 4.8295C3.54054 4.61853 3.82669 4.5 4.12506 4.5ZM12.3751 21H7.12506L8.02506 18.75H11.5051L12.3751 21ZM14.2501 17.25H6.00006C5.94423 17.2491 5.89012 17.2305 5.84561 17.1968C5.8011 17.163 5.76851 17.116 5.75256 17.0625L4.50006 12.75H6.75006L7.27506 14.4975C7.38299 14.868 7.61103 15.1921 7.92329 15.4188C8.23556 15.6456 8.61435 15.7621 9.00006 15.75H14.2501C14.449 15.75 14.6397 15.829 14.7804 15.9697C14.921 16.1103 15.0001 16.3011 15.0001 16.5C15.0001 16.6989 14.921 16.8897 14.7804 17.0303C14.6397 17.171 14.449 17.25 14.2501 17.25Z" fill="white"/>
<path d="M20.01 2.25H17.49C16.8296 2.25 16.1963 2.51234 15.7293 2.9793C15.2623 3.44627 15 4.07961 15 4.74V9.51C15 10.1704 15.2623 10.8037 15.7293 11.2707C16.1963 11.7377 16.8296 12 17.49 12H20.01C20.6704 12 21.3037 11.7377 21.7707 11.2707C22.2377 10.8037 22.5 10.1704 22.5 9.51V4.74C22.5 4.41301 22.4356 4.08922 22.3105 3.78712C22.1853 3.48502 22.0019 3.21052 21.7707 2.9793C21.5395 2.74809 21.265 2.56467 20.9629 2.43954C20.6608 2.31441 20.337 2.25 20.01 2.25ZM17.49 3.75H20.01C20.2726 3.75 20.5244 3.8543 20.71 4.03996C20.8957 4.22563 21 4.47744 21 4.74V5.25H16.5V4.74C16.5 4.47744 16.6043 4.22563 16.79 4.03996C16.9756 3.8543 17.2274 3.75 17.49 3.75ZM20.01 10.5H17.49C17.2274 10.5 16.9756 10.3957 16.79 10.21C16.6043 10.0244 16.5 9.77256 16.5 9.51V6.75H21V9.51C21 9.77256 20.8957 10.0244 20.71 10.21C20.5244 10.3957 20.2726 10.5 20.01 10.5Z" fill="white"/>
</svg>
