<svg width="24" height="24" viewBox="0 0 24 24" fill="none" xmlns="http://www.w3.org/2000/svg">
<g clip-path="url(#clip0_285_889)">
<path d="M0.820442 8.77281C0.819645 8.77274 0.818914 8.77261 0.818051 8.77248C0.520532 8.72351 0.234973 8.91107 0.162088 9.20394C0.0888713 9.49754 0.254041 9.79798 0.541195 9.89352L8.63691 12.5871L5.9439 13.6595C5.7483 13.7375 5.62857 13.9363 5.6513 14.1455C5.67389 14.3548 5.83341 14.5234 6.0413 14.5576L7.80661 14.8482C7.85731 14.8565 7.909 14.8565 7.95969 14.848L14.6685 13.7322L21.13 14.7847C23.6 15.1529 23.9418 14.2712 23.9877 13.992C24.0234 13.7757 23.9988 13.4314 23.6794 13.0203C23.3555 12.6031 22.7978 12.1999 21.9751 11.7876C21.7003 11.6499 21.5695 11.5463 21.4311 11.4365C20.9438 11.0507 20.5812 10.8315 18.2546 10.4485L5.52825 8.35391L3.35473 3.85073C3.27274 3.68091 3.11329 3.56165 2.92712 3.53102L2.09549 3.39409C1.92428 3.36592 1.74947 3.41595 1.61925 3.53049C1.4889 3.64504 1.41674 3.81193 1.42272 3.98527L1.59048 8.9027L0.820442 8.77281Z" fill="white"/>
<path d="M22.7695 18.4073H1.10317C0.493915 18.4073 0 18.9011 0 19.5104C0 20.1196 0.493915 20.6136 1.10317 20.6136H22.7695C23.3787 20.6136 23.8727 20.1195 23.8727 19.5104C23.8727 18.9013 23.3787 18.4073 22.7695 18.4073Z" fill="white"/>
</g>
<defs>
<clipPath id="clip0_285_889">
<rect width="24" height="24" fill="white"/>
</clipPath>
</defs>
</svg>
