<svg width="10" height="11" viewBox="0 0 10 11" fill="none" xmlns="http://www.w3.org/2000/svg">
<path d="M9.28571 4.32143H6.07143V0.785714C6.07143 0.351853 5.75156 0 5.35714 0H4.64286C4.24844 0 3.92857 0.351853 3.92857 0.785714V4.32143H0.714286C0.319866 4.32143 0 4.67328 0 5.10714V5.89286C0 6.32672 0.319866 6.67857 0.714286 6.67857H3.92857V10.2143C3.92857 10.6481 4.24844 11 4.64286 11H5.35714C5.75156 11 6.07143 10.6481 6.07143 10.2143V6.67857H9.28571C9.68013 6.67857 10 6.32672 10 5.89286V5.10714C10 4.67328 9.68013 4.32143 9.28571 4.32143Z" fill="black"/>
</svg>
