<svg width="25" height="24" viewBox="0 0 25 24" fill="none" xmlns="http://www.w3.org/2000/svg">
<path d="M20.8332 9.22222H15.8727L11.3111 1.23871C11.2503 1.13242 11.1624 1.04409 11.0565 0.982658C10.9505 0.921227 10.8302 0.888878 10.7078 0.888885L7.8649 0.888885C7.40353 0.888885 7.07063 1.33029 7.19737 1.77387L9.32541 9.22222H4.861L2.986 6.72222C2.85492 6.54731 2.64876 6.44444 2.43044 6.44444H0.694763C0.24294 6.44444 -0.0886568 6.86892 0.0211523 7.30729L1.38877 12L0.0211523 16.6927C-0.0886568 17.1311 0.24294 17.5556 0.694763 17.5556H2.43044C2.64919 17.5556 2.85492 17.4527 2.986 17.2778L4.861 14.7778H9.32541L7.19737 22.2257C7.07063 22.6693 7.40353 23.1111 7.8649 23.1111H10.7078C10.9569 23.1111 11.187 22.9774 11.3106 22.7613L15.8727 14.7778H20.8332C22.3675 14.7778 24.9999 13.5343 24.9999 12C24.9999 10.4657 22.3675 9.22222 20.8332 9.22222Z" fill="white"/>
</svg>
