<svg width="52" height="199" viewBox="0 0 52 199" fill="none" xmlns="http://www.w3.org/2000/svg">
<path d="M26.0059 50.3819C39.8098 50.3819 51 39.256 51 25.5315C51 11.8071 39.8098 0.681152 26.0059 0.681152C12.202 0.681152 1.01172 11.8071 1.01172 25.5315C1.01172 39.256 12.202 50.3819 26.0059 50.3819Z" stroke="#B7B7B7"/>
<path d="M24.7062 32.8787L24.6858 26.6194H22.0078V23.9369H24.6858V22.1485C24.6858 19.7349 26.1778 18.5718 28.3272 18.5718C29.3568 18.5718 30.2417 18.6486 30.4995 18.6829V21.2052L29.0088 21.2059C27.8399 21.2059 27.6135 21.7623 27.6135 22.5788V23.9369H30.9343L30.0416 26.6194H27.6135V32.8787H24.7062Z" fill="#1E2532"/>
<path d="M26.0059 124.083C39.8098 124.083 51 112.957 51 99.2322C51 85.5077 39.8098 74.3818 26.0059 74.3818C12.202 74.3818 1.01172 85.5077 1.01172 99.2322C1.01172 112.957 12.202 124.083 26.0059 124.083Z" stroke="#B7B7B7"/>
<g clip-path="url(#clip0_153_378)">
<path d="M29.7552 91.7803H22.2569C20.1864 91.7803 18.5078 93.4492 18.5078 95.5078V102.963C18.5078 105.022 20.1864 106.691 22.2569 106.691H29.7552C31.8258 106.691 33.5043 105.022 33.5043 102.963V95.5078C33.5043 93.4492 31.8258 91.7803 29.7552 91.7803Z" stroke="#1E2532" stroke-width="2" stroke-linecap="round" stroke-linejoin="round"/>
<path d="M29.0052 98.7663C29.0978 99.3868 28.9912 100.02 28.7006 100.577C28.4101 101.134 27.9503 101.585 27.3868 101.867C26.8233 102.149 26.1847 102.248 25.5619 102.148C24.939 102.048 24.3636 101.756 23.9175 101.312C23.4715 100.869 23.1774 100.297 23.0772 99.6775C22.9769 99.0582 23.0757 98.4233 23.3593 97.863C23.6429 97.3028 24.097 96.8457 24.657 96.5568C25.2169 96.2679 25.8543 96.1619 26.4783 96.2539C27.1149 96.3478 27.7042 96.6427 28.1592 97.0951C28.6142 97.5475 28.9108 98.1334 29.0052 98.7663Z" stroke="#1E2532" stroke-width="2" stroke-linecap="round" stroke-linejoin="round"/>
<ellipse cx="30.1289" cy="95.1329" rx="1.125" ry="1.11827" fill="white"/>
</g>
<path d="M26.0059 197.784C39.8098 197.784 51 186.658 51 172.933C51 159.209 39.8098 148.083 26.0059 148.083C12.202 148.083 1.01172 159.209 1.01172 172.933C1.01172 186.658 12.202 197.784 26.0059 197.784Z" stroke="#B7B7B7"/>
<path d="M33.2902 168.311C32.7546 168.579 32.219 168.668 31.5942 168.758C32.219 168.4 32.6653 167.864 32.8439 167.148C32.3083 167.506 31.6834 167.685 30.9693 167.864C30.4337 167.327 29.6303 166.969 28.8269 166.969C27.3094 166.969 25.9705 168.311 25.9705 169.92C25.9705 170.189 25.9705 170.367 26.0597 170.546C23.6496 170.457 21.418 169.294 19.9897 167.506C19.7219 167.953 19.6327 168.4 19.6327 169.026C19.6327 170.01 20.1683 170.904 20.9716 171.44C20.5253 171.44 20.079 171.262 19.6327 171.083C19.6327 172.513 20.6146 173.676 21.9536 173.944C21.6858 174.034 21.418 174.034 21.1502 174.034C20.9716 174.034 20.7931 174.034 20.6146 173.944C20.9716 175.107 22.0428 176.001 23.3818 176.001C22.3999 176.805 21.1502 177.253 19.7219 177.253C19.4541 177.253 19.2756 177.253 19.0078 177.253C20.3468 178.057 21.8643 178.594 23.4711 178.594C28.8269 178.594 31.7727 174.123 31.7727 170.278C31.7727 170.189 31.7727 170.01 31.7727 169.92C32.3975 169.473 32.9331 168.937 33.2902 168.311Z" fill="#1E2532"/>
<defs>
<clipPath id="clip0_153_378">
<rect width="17.9958" height="17.8923" fill="white" transform="translate(17.0078 90.2881)"/>
</clipPath>
</defs>
</svg>
