<svg width="24" height="24" viewBox="0 0 24 24" fill="none" xmlns="http://www.w3.org/2000/svg">
<g clip-path="url(#clip0_285_879)">
<path d="M2.4431 13.7126C2.44246 13.7129 2.44175 13.7132 2.44104 13.7136C2.18099 13.8488 2.06805 14.1611 2.18177 14.4313C2.29581 14.7025 2.59925 14.8401 2.87835 14.7472L10.7469 12.1293L9.27562 14.532C9.16874 14.7065 9.19134 14.9309 9.33089 15.0807C9.47044 15.2303 9.69271 15.2687 9.87443 15.1742L11.4174 14.3725C11.4617 14.3495 11.5019 14.3193 11.5365 14.2831L16.1075 9.50834L21.7487 6.56484C23.8852 5.41313 23.6377 4.5278 23.511 4.28396C23.4128 4.09488 23.1931 3.84136 22.7051 3.7073C22.2102 3.5713 21.5414 3.58215 20.6611 3.74049C20.3672 3.79331 20.205 3.78886 20.0332 3.78414C19.4294 3.76761 19.0198 3.8081 16.986 4.86488L5.86272 10.6454L1.54905 8.40668C1.38638 8.32228 1.19285 8.32234 1.03018 8.40693L0.303318 8.7847C0.153696 8.86245 0.0468228 9.00316 0.012081 9.16815C-0.0226608 9.33321 0.0184094 9.50511 0.123926 9.63652L3.11792 13.3657L2.4431 13.7126Z" fill="white"/>
<path d="M22.9278 18.2427H1.86934C1.27718 18.2427 0.797119 18.7229 0.797119 19.315C0.797119 19.907 1.27718 20.3872 1.86934 20.3872H22.9278C23.5199 20.3872 24 19.9071 24 19.315C23.9999 18.7227 23.5199 18.2427 22.9278 18.2427Z" fill="white"/>
</g>
<defs>
<clipPath id="clip0_285_879">
<rect width="24" height="24" fill="white"/>
</clipPath>
</defs>
</svg>
